<svg width="161" height="23" viewBox="0 0 161 23" fill="none" xmlns="http://www.w3.org/2000/svg">
<path d="M0 9.43749C0 4.86087 3.83888 1.13408 8.42502 1.13408C9.47838 1.1171 10.5245 1.31096 11.5018 1.70426C12.4792 2.09755 13.368 2.68235 14.1159 3.42422L12.5079 5.02571C11.4132 3.96879 9.94579 3.38645 8.42429 3.40518C5.08505 3.40518 2.47476 6.09459 2.47476 9.44042C2.47476 12.7863 5.08065 15.4742 8.42429 15.4742C10.5906 15.4742 11.8236 14.6046 12.6141 13.8134C13.2625 13.1643 13.6859 12.2309 13.8485 10.9657H8.42722V8.68803H16.0544C16.141 9.15746 16.1817 9.63419 16.176 10.1115C16.176 11.8126 15.7116 13.9211 14.2126 15.4178C12.7518 16.9299 10.8895 17.7321 8.42502 17.7321C3.83961 17.7321 0 14.0141 0 9.43749Z" fill="white"/>
<path d="M22.3373 15.6325C20.7182 15.6325 19.3226 14.2962 19.3226 12.3929C19.3226 10.4895 20.7182 9.15325 22.3373 9.15325C23.9563 9.15325 25.3527 10.472 25.3527 12.3929C25.3527 14.3138 23.9563 15.6347 22.3373 15.6347M22.3373 7.04993C19.3826 7.04993 16.9745 9.29758 16.9745 12.398C16.9745 15.4984 19.3826 17.7373 22.3373 17.7373C25.2919 17.7373 27.7007 15.4662 27.7007 12.3892C27.7007 9.31223 25.2926 7.04773 22.3373 7.04773V7.04993Z" fill="white"/>
<path d="M34.0378 15.6325C32.4187 15.6325 31.0224 14.2962 31.0224 12.3929C31.0224 10.4895 32.4187 9.15325 34.0378 9.15325C35.6569 9.15325 37.0525 10.472 37.0525 12.3929C37.0525 14.3138 35.6569 15.6347 34.0378 15.6347M34.0378 7.04993C31.0825 7.04993 28.6744 9.29758 28.6744 12.398C28.6744 15.4984 31.0825 17.7373 34.0378 17.7373C36.9932 17.7373 39.4005 15.4662 39.4005 12.3892C39.4005 9.31223 36.9924 7.04773 34.0378 7.04773V7.04993Z" fill="white"/>
<path d="M54.5919 1.70178H52.2439V17.4156H54.5919V1.70178Z" fill="white"/>
<path d="M60.8462 9.11369C61.7774 9.11369 62.5664 9.5789 62.8287 10.2478L58.0528 12.2317C57.9905 10.1657 59.6506 9.11369 60.8448 9.11369M61.0265 15.6339C59.833 15.6339 58.9825 15.0859 58.4367 14.0134L65.5818 11.0566L65.3415 10.4544C64.8954 9.25948 63.5408 7.05286 60.7671 7.05286C57.9934 7.05286 55.7282 9.21992 55.7282 12.4009C55.7282 15.3973 57.9993 17.749 61.0316 17.749C61.9122 17.7534 62.7801 17.5389 63.5572 17.1247C64.3344 16.7104 64.9964 16.1096 65.4837 15.376L63.6638 14.157C63.0521 15.0427 62.2221 15.6347 61.0308 15.6347L61.0265 15.6339Z" fill="white"/>
<path d="M45.7105 15.6347C44.0914 15.6347 42.7353 14.2771 42.7353 12.4112C42.7353 10.5452 44.0914 9.15106 45.7105 9.15106C47.3295 9.15106 48.5567 10.5269 48.5567 12.4112C48.5567 14.2954 47.3061 15.6347 45.7075 15.6347M48.3955 7.37154V8.24042H48.3149C47.7882 7.60745 46.7764 7.04553 45.5024 7.04553C42.8299 7.04553 40.3815 9.39501 40.3815 12.4119C40.3815 15.4288 42.8299 17.7321 45.5024 17.7321C46.7764 17.7321 47.7882 17.1658 48.3149 16.5167H48.3955V17.286C48.3955 19.3314 47.3032 20.4245 45.5493 20.4245C44.1127 20.4245 43.2225 19.3915 42.8621 18.5263L40.8174 19.3776C41.2019 20.318 41.8591 21.1218 42.7044 21.6856C43.5497 22.2493 44.5443 22.5473 45.5603 22.541C48.3134 22.541 50.6409 20.9212 50.6409 16.9731V7.37594L48.3955 7.37154Z" fill="white"/>
<path d="M152.87 1.42859H115.728C111.237 1.42859 107.597 5.06874 107.597 9.5591C107.597 14.0495 111.237 17.6896 115.728 17.6896H152.87C157.36 17.6896 161 14.0495 161 9.5591C161 5.06874 157.36 1.42859 152.87 1.42859Z" fill="white"/>
<path d="M80.4832 1.67847H72.5585V17.4391H80.4832V1.67847Z" fill="white"/>
<path d="M95.1808 17.6896C99.6712 17.6896 103.311 14.0495 103.311 9.5591C103.311 5.06874 99.6712 1.42859 95.1808 1.42859C90.6904 1.42859 87.0503 5.06874 87.0503 9.5591C87.0503 14.0495 90.6904 17.6896 95.1808 17.6896Z" fill="white"/>
<path d="M153.887 12.8463C153.428 12.8463 153.012 12.7298 152.639 12.4969C152.266 12.264 151.97 11.9445 151.75 11.5386C151.538 11.126 151.431 10.6601 151.431 10.141C151.431 9.62193 151.538 9.1594 151.75 8.75344C151.97 8.34083 152.266 8.01806 152.639 7.78514C153.012 7.55221 153.428 7.43575 153.887 7.43575C154.246 7.43575 154.569 7.51561 154.855 7.67533C155.141 7.83505 155.358 8.03137 155.504 8.2643H155.554L155.504 7.54556V5.53906H156.602V12.6866H155.554V12.0277H155.504C155.358 12.254 155.141 12.447 154.855 12.6067C154.569 12.7664 154.246 12.8463 153.887 12.8463ZM154.046 11.8381C154.313 11.8381 154.559 11.7682 154.785 11.6284C155.018 11.4887 155.204 11.289 155.344 11.0295C155.484 10.7699 155.554 10.4738 155.554 10.141C155.554 9.80827 155.484 9.51545 155.344 9.26255C155.204 9.00301 155.018 8.80336 154.785 8.6636C154.559 8.52385 154.313 8.45397 154.046 8.45397C153.78 8.45397 153.531 8.52385 153.298 8.6636C153.065 8.80336 152.879 9.00301 152.739 9.26255C152.599 9.51545 152.529 9.80827 152.529 10.141C152.529 10.4738 152.599 10.7699 152.739 11.0295C152.879 11.289 153.065 11.4887 153.298 11.6284C153.531 11.7682 153.78 11.8381 154.046 11.8381Z" fill="#202124"/>
<path d="M148.236 12.8463C147.737 12.8463 147.288 12.7299 146.888 12.4969C146.496 12.264 146.186 11.9446 145.96 11.5386C145.74 11.126 145.631 10.6635 145.631 10.151C145.631 9.66523 145.737 9.21601 145.95 8.8034C146.17 8.38413 146.472 8.05138 146.858 7.80515C147.244 7.55891 147.684 7.43579 148.176 7.43579C148.689 7.43579 149.131 7.54893 149.504 7.7752C149.883 8.00147 150.169 8.31093 150.362 8.70358C150.562 9.09622 150.662 9.53878 150.662 10.0313C150.662 10.1244 150.652 10.2409 150.632 10.3806H146.729C146.769 10.8532 146.935 11.2192 147.228 11.4787C147.527 11.7316 147.873 11.8581 148.266 11.8581C148.579 11.8581 148.848 11.7882 149.075 11.6484C149.308 11.502 149.494 11.3057 149.634 11.0595L150.562 11.4987C150.322 11.918 150.01 12.2474 149.624 12.487C149.238 12.7265 148.775 12.8463 148.236 12.8463ZM149.544 9.54211C149.53 9.36242 149.474 9.18606 149.374 9.01303C149.274 8.83335 149.121 8.68361 148.915 8.56382C148.715 8.44403 148.469 8.38413 148.176 8.38413C147.823 8.38413 147.524 8.49061 147.278 8.70358C147.038 8.90988 146.872 9.18939 146.779 9.54211H149.544Z" fill="#202124"/>
<path d="M141.964 12.8463C141.505 12.8463 141.089 12.7298 140.716 12.4969C140.344 12.264 140.048 11.9445 139.828 11.5386C139.615 11.126 139.509 10.6601 139.509 10.141C139.509 9.62193 139.615 9.1594 139.828 8.75344C140.048 8.34083 140.344 8.01806 140.716 7.78514C141.089 7.55221 141.505 7.43575 141.964 7.43575C142.324 7.43575 142.646 7.51561 142.933 7.67533C143.219 7.83505 143.435 8.03137 143.581 8.2643H143.631L143.581 7.54556V5.53906H144.68V12.6866H143.631V12.0277H143.581C143.435 12.254 143.219 12.447 142.933 12.6067C142.646 12.7664 142.324 12.8463 141.964 12.8463ZM142.124 11.8381C142.39 11.8381 142.636 11.7682 142.863 11.6284C143.096 11.4887 143.282 11.289 143.422 11.0295C143.561 10.7699 143.631 10.4738 143.631 10.141C143.631 9.80827 143.561 9.51545 143.422 9.26255C143.282 9.00301 143.096 8.80336 142.863 8.6636C142.636 8.52385 142.39 8.45397 142.124 8.45397C141.858 8.45397 141.608 8.52385 141.375 8.6636C141.142 8.80336 140.956 9.00301 140.816 9.26255C140.677 9.51545 140.607 9.80827 140.607 10.141C140.607 10.4738 140.677 10.7699 140.816 11.0295C140.956 11.289 141.142 11.4887 141.375 11.6284C141.608 11.7682 141.858 11.8381 142.124 11.8381Z" fill="#202124"/>
<path d="M133.978 7.59551H135.026V8.26434H135.076C135.222 8.02476 135.439 7.82844 135.725 7.67537C136.018 7.51565 136.327 7.43579 136.653 7.43579C137.272 7.43579 137.741 7.6188 138.061 7.98483C138.387 8.3442 138.55 8.83668 138.55 9.46225V12.6866H137.452V9.61199C137.452 9.21269 137.352 8.91986 137.152 8.73352C136.959 8.54718 136.69 8.45401 136.344 8.45401C136.098 8.45401 135.878 8.52389 135.685 8.66364C135.492 8.79675 135.342 8.97643 135.236 9.2027C135.129 9.42897 135.076 9.67188 135.076 9.93143V12.6866H133.978V7.59551Z" fill="#202124"/>
<path d="M130.552 12.8463C130.053 12.8463 129.604 12.7299 129.204 12.4969C128.812 12.264 128.502 11.9446 128.276 11.5386C128.056 11.126 127.947 10.6635 127.947 10.151C127.947 9.66523 128.053 9.21601 128.266 8.8034C128.486 8.38413 128.789 8.05138 129.175 7.80515C129.561 7.55891 130 7.43579 130.492 7.43579C131.005 7.43579 131.447 7.54893 131.82 7.7752C132.199 8.00147 132.485 8.31093 132.678 8.70358C132.878 9.09622 132.978 9.53878 132.978 10.0313C132.978 10.1244 132.968 10.2409 132.948 10.3806H129.045C129.085 10.8532 129.251 11.2192 129.544 11.4787C129.843 11.7316 130.189 11.8581 130.582 11.8581C130.895 11.8581 131.164 11.7882 131.391 11.6484C131.624 11.502 131.81 11.3057 131.95 11.0595L132.878 11.4987C132.638 11.918 132.326 12.2474 131.94 12.487C131.554 12.7265 131.091 12.8463 130.552 12.8463ZM131.86 9.54211C131.847 9.36242 131.79 9.18606 131.69 9.01303C131.59 8.83335 131.437 8.68361 131.231 8.56382C131.031 8.44403 130.785 8.38413 130.492 8.38413C130.139 8.38413 129.84 8.49061 129.594 8.70358C129.354 8.90988 129.188 9.18939 129.095 9.54211H131.86Z" fill="#202124"/>
<path d="M126.598 12.7664C126.372 12.7664 126.159 12.7298 125.959 12.6566C125.76 12.5834 125.597 12.4869 125.47 12.3671C125.184 12.0809 125.041 11.6916 125.041 11.1991V8.56375H124.153V7.59545H125.041V6.15796H126.139V7.59545H127.377V8.56375H126.139V10.9596C126.139 11.2324 126.192 11.4254 126.299 11.5386C126.399 11.6717 126.572 11.7382 126.818 11.7382C126.931 11.7382 127.031 11.7249 127.117 11.6983C127.204 11.665 127.297 11.6151 127.397 11.5485V12.6167C127.177 12.7165 126.911 12.7664 126.598 12.7664Z" fill="#202124"/>
<path d="M120.652 10.1012L118.895 7.59558H120.173L121.301 9.25269H121.331L122.409 7.59558H123.727L121.95 10.1012L123.747 12.6867H122.449L121.311 10.9697H121.281L120.173 12.6867H118.875L120.652 10.1012Z" fill="#202124"/>
<path d="M113.929 5.53906H118.272V6.6072H115.047V8.58374H117.952V9.64189H115.047V11.6184H118.272V12.6866H113.929V5.53906Z" fill="#202124"/>
<path d="M83.0817 19.1175H81.5535L85.9008 0H87.4283L83.0817 19.1175Z" fill="white"/>
</svg>
