<svg width="158" height="22" viewBox="0 0 158 22" fill="none" xmlns="http://www.w3.org/2000/svg">
<path d="M0 9.21097C0 4.7442 3.74673 1.10687 8.22279 1.10687C9.25087 1.09029 10.2719 1.2795 11.2257 1.66336C12.1796 2.04721 13.0471 2.61797 13.7771 3.34204L12.2076 4.90508C11.1393 3.87353 9.70705 3.30517 8.22208 3.32345C4.96299 3.32345 2.41536 5.94831 2.41536 9.21383C2.41536 12.4793 4.9587 15.1028 8.22208 15.1028C10.3364 15.1028 11.5398 14.254 12.3113 13.4818C12.9441 12.8483 13.3574 11.9374 13.5161 10.7025H8.22494V8.4795H15.6691C15.7536 8.93765 15.7933 9.40294 15.7878 9.86879C15.7878 11.5291 15.3344 13.5869 13.8715 15.0477C12.4457 16.5235 10.6281 17.3065 8.22279 17.3065C3.74745 17.3065 0 13.6777 0 9.21097Z" fill="#202124"/>
<path d="M21.8011 15.2572C20.2209 15.2572 18.8588 13.953 18.8588 12.0954C18.8588 10.2378 20.2209 8.93355 21.8011 8.93355C23.3813 8.93355 24.7442 10.2206 24.7442 12.0954C24.7442 13.9702 23.3813 15.2594 21.8011 15.2594M21.8011 6.88072C18.9174 6.88072 16.5671 9.07441 16.5671 12.1004C16.5671 15.1264 18.9174 17.3115 21.8011 17.3115C24.6848 17.3115 27.0358 15.0949 27.0358 12.0918C27.0358 9.08871 24.6855 6.87857 21.8011 6.87857V6.88072Z" fill="#202124"/>
<path d="M33.2208 15.2572C31.6406 15.2572 30.2778 13.953 30.2778 12.0954C30.2778 10.2378 31.6406 8.93355 33.2208 8.93355C34.801 8.93355 36.1632 10.2206 36.1632 12.0954C36.1632 13.9702 34.801 15.2594 33.2208 15.2594M33.2208 6.88072C30.3364 6.88072 27.9861 9.07441 27.9861 12.1004C27.9861 15.1264 30.3364 17.3115 33.2208 17.3115C36.1053 17.3115 38.4548 15.0949 38.4548 12.0918C38.4548 9.08871 36.1045 6.87857 33.2208 6.87857V6.88072Z" fill="#202124"/>
<path d="M53.2815 1.66098H50.9899V16.9976H53.2815V1.66098Z" fill="#202124"/>
<path d="M53.2815 1.66098H50.9899V16.9976H53.2815V1.66098Z" fill="#202124"/>
<path d="M59.3857 8.89494C60.2945 8.89494 61.0645 9.34898 61.3205 10.0018L56.6593 11.9381C56.5985 9.92172 58.2188 8.89494 59.3842 8.89494M59.5616 15.2587C58.3968 15.2587 57.5666 14.7238 57.034 13.677L64.0076 10.7912L63.7731 10.2034C63.3376 9.03723 62.0155 6.88358 59.3085 6.88358C56.6014 6.88358 54.3905 8.99862 54.3905 12.1033C54.3905 15.0277 56.6071 17.3229 59.5666 17.3229C60.4261 17.3273 61.2731 17.1179 62.0316 16.7136C62.7901 16.3094 63.4362 15.7229 63.9118 15.007L62.1357 13.8172C61.5386 14.6816 60.7285 15.2594 59.5659 15.2594L59.5616 15.2587Z" fill="#202124"/>
<path d="M44.6133 15.2594C43.0331 15.2594 41.7095 13.9344 41.7095 12.1133C41.7095 10.2921 43.0331 8.93139 44.6133 8.93139C46.1935 8.93139 47.3911 10.2742 47.3911 12.1133C47.3911 13.9523 46.1706 15.2594 44.6104 15.2594M47.2338 7.19459V8.04261H47.1552C46.6411 7.42483 45.6536 6.8764 44.4102 6.8764C41.8018 6.8764 39.4122 9.16949 39.4122 12.114C39.4122 15.0584 41.8018 17.3065 44.4102 17.3065C45.6536 17.3065 46.6411 16.7538 47.1552 16.1203H47.2338V16.871C47.2338 18.8674 46.1677 19.9342 44.456 19.9342C43.0538 19.9342 42.185 18.926 41.8332 18.0816L39.8376 18.9124C40.213 19.8303 40.8544 20.6148 41.6793 21.165C42.5043 21.7153 43.4751 22.006 44.4667 21.9999C47.1538 21.9999 49.4254 20.419 49.4254 16.5657V7.19888L47.2338 7.19459Z" fill="#202124"/>
<path d="M149.2 1.39429H112.95C108.567 1.39429 105.014 4.94707 105.014 9.32964C105.014 13.7122 108.567 17.265 112.95 17.265H149.2C153.583 17.265 157.135 13.7122 157.135 9.32964C157.135 4.94707 153.583 1.39429 149.2 1.39429Z" fill="#202124"/>
<path d="M78.5513 1.63812H70.8169V17.0205H78.5513V1.63812Z" fill="#202124"/>
<path d="M92.8961 17.265C97.2787 17.265 100.831 13.7122 100.831 9.32964C100.831 4.94707 97.2787 1.39429 92.8961 1.39429C88.5135 1.39429 84.9608 4.94707 84.9608 9.32964C84.9608 13.7122 88.5135 17.265 92.8961 17.265Z" fill="#202124"/>
<path d="M150.193 12.538C149.745 12.538 149.339 12.4243 148.975 12.197C148.611 11.9697 148.322 11.6579 148.108 11.2617C147.9 10.859 147.796 10.4043 147.796 9.89765C147.796 9.39102 147.9 8.9396 148.108 8.54338C148.322 8.14068 148.611 7.82565 148.975 7.59832C149.339 7.37098 149.745 7.25732 150.193 7.25732C150.544 7.25732 150.859 7.33526 151.138 7.49115C151.417 7.64703 151.628 7.83864 151.771 8.06598H151.82L151.771 7.36449V5.40616H152.843V12.3821H151.82V11.7391H151.771C151.628 11.9599 151.417 12.1483 151.138 12.3042C150.859 12.46 150.544 12.538 150.193 12.538ZM150.349 11.554C150.609 11.554 150.849 11.4858 151.07 11.3494C151.297 11.2129 151.479 11.0181 151.615 10.7648C151.752 10.5115 151.82 10.2224 151.82 9.89765C151.82 9.57289 151.752 9.28709 151.615 9.04027C151.479 8.78696 151.297 8.5921 151.07 8.4557C150.849 8.3193 150.609 8.2511 150.349 8.2511C150.089 8.2511 149.846 8.3193 149.618 8.4557C149.391 8.5921 149.209 8.78696 149.073 9.04027C148.936 9.28709 148.868 9.57289 148.868 9.89765C148.868 10.2224 148.936 10.5115 149.073 10.7648C149.209 11.0181 149.391 11.2129 149.618 11.3494C149.846 11.4858 150.089 11.554 150.349 11.554Z" fill="white"/>
<path d="M144.678 12.538C144.191 12.538 143.752 12.4243 143.363 12.197C142.979 11.9697 142.677 11.6579 142.457 11.2617C142.242 10.859 142.135 10.4075 142.135 9.9074C142.135 9.43325 142.239 8.99481 142.447 8.59211C142.661 8.1829 142.957 7.85814 143.333 7.61781C143.71 7.37749 144.139 7.25732 144.62 7.25732C145.12 7.25732 145.552 7.36774 145.915 7.58858C146.286 7.80942 146.565 8.11146 146.753 8.49468C146.948 8.8779 147.046 9.30984 147.046 9.79049C147.046 9.88142 147.036 9.99509 147.016 10.1315H143.207C143.246 10.5927 143.408 10.9499 143.694 11.2032C143.986 11.45 144.324 11.5734 144.707 11.5734C145.012 11.5734 145.276 11.5052 145.496 11.3688C145.724 11.2259 145.906 11.0343 146.042 10.794L146.948 11.2227C146.714 11.6319 146.409 11.9534 146.032 12.1873C145.656 12.4211 145.204 12.538 144.678 12.538ZM145.954 9.31308C145.941 9.13771 145.886 8.96559 145.789 8.79671C145.691 8.62134 145.542 8.47519 145.34 8.35828C145.146 8.24136 144.905 8.1829 144.62 8.1829C144.275 8.1829 143.983 8.28683 143.743 8.49468C143.509 8.69603 143.346 8.96883 143.256 9.31308H145.954Z" fill="white"/>
<path d="M138.557 12.538C138.108 12.538 137.703 12.4243 137.339 12.197C136.975 11.9697 136.686 11.6579 136.472 11.2617C136.264 10.859 136.16 10.4043 136.16 9.89765C136.16 9.39102 136.264 8.9396 136.472 8.54338C136.686 8.14068 136.975 7.82565 137.339 7.59832C137.703 7.37098 138.108 7.25732 138.557 7.25732C138.907 7.25732 139.222 7.33526 139.502 7.49115C139.781 7.64703 139.992 7.83864 140.135 8.06598H140.184L140.135 7.36449V5.40616H141.207V12.3821H140.184V11.7391H140.135C139.992 11.9599 139.781 12.1483 139.502 12.3042C139.222 12.46 138.907 12.538 138.557 12.538ZM138.713 11.554C138.972 11.554 139.213 11.4858 139.434 11.3494C139.661 11.2129 139.843 11.0181 139.979 10.7648C140.116 10.5115 140.184 10.2224 140.184 9.89765C140.184 9.57289 140.116 9.28709 139.979 9.04027C139.843 8.78696 139.661 8.5921 139.434 8.4557C139.213 8.3193 138.972 8.2511 138.713 8.2511C138.453 8.2511 138.209 8.3193 137.982 8.4557C137.755 8.5921 137.573 8.78696 137.436 9.04027C137.3 9.28709 137.232 9.57289 137.232 9.89765C137.232 10.2224 137.3 10.5115 137.436 10.7648C137.573 11.0181 137.755 11.2129 137.982 11.3494C138.209 11.4858 138.453 11.554 138.713 11.554Z" fill="white"/>
<path d="M130.762 7.41321H131.785V8.06599H131.834C131.977 7.83216 132.188 7.64055 132.467 7.49115C132.753 7.33527 133.055 7.25732 133.373 7.25732C133.977 7.25732 134.435 7.43594 134.747 7.79319C135.065 8.14393 135.224 8.62458 135.224 9.23514V12.3821H134.153V9.38128C134.153 8.99157 134.055 8.70577 133.86 8.52391C133.672 8.34204 133.409 8.2511 133.071 8.2511C132.831 8.2511 132.616 8.3193 132.428 8.45571C132.24 8.58561 132.094 8.76098 131.99 8.98182C131.886 9.20266 131.834 9.43974 131.834 9.69306V12.3821H130.762V7.41321Z" fill="white"/>
<path d="M127.419 12.538C126.931 12.538 126.493 12.4243 126.103 12.197C125.72 11.9697 125.418 11.6579 125.197 11.2617C124.983 10.859 124.876 10.4075 124.876 9.9074C124.876 9.43325 124.98 8.99481 125.187 8.59211C125.402 8.1829 125.697 7.85814 126.074 7.61781C126.451 7.37749 126.879 7.25732 127.36 7.25732C127.86 7.25732 128.292 7.36774 128.656 7.58858C129.026 7.80942 129.305 8.11146 129.494 8.49468C129.689 8.8779 129.786 9.30984 129.786 9.79049C129.786 9.88142 129.776 9.99509 129.757 10.1315H125.947C125.986 10.5927 126.149 10.9499 126.434 11.2032C126.727 11.45 127.065 11.5734 127.448 11.5734C127.753 11.5734 128.016 11.5052 128.237 11.3688C128.464 11.2259 128.646 11.0343 128.783 10.794L129.689 11.2227C129.455 11.6319 129.15 11.9534 128.773 12.1873C128.396 12.4211 127.945 12.538 127.419 12.538ZM128.695 9.31308C128.682 9.13771 128.627 8.96559 128.529 8.79671C128.432 8.62134 128.282 8.47519 128.081 8.35828C127.886 8.24136 127.646 8.1829 127.36 8.1829C127.016 8.1829 126.724 8.28683 126.483 8.49468C126.249 8.69603 126.087 8.96883 125.996 9.31308H128.695Z" fill="white"/>
<path d="M123.56 12.4601C123.339 12.4601 123.131 12.4244 122.936 12.3529C122.741 12.2815 122.582 12.1873 122.459 12.0704C122.179 11.7911 122.04 11.4111 122.04 10.9304V8.3583H121.173V7.41324H122.04V6.01025H123.111V7.41324H124.32V8.3583H123.111V10.6966C123.111 10.9629 123.163 11.1513 123.267 11.2617C123.365 11.3916 123.534 11.4566 123.774 11.4566C123.884 11.4566 123.982 11.4436 124.066 11.4176C124.151 11.3851 124.242 11.3364 124.339 11.2714V12.3139C124.125 12.4114 123.865 12.4601 123.56 12.4601Z" fill="white"/>
<path d="M117.756 9.85872L116.041 7.41324H117.288L118.389 9.03057H118.418L119.471 7.41324H120.757L119.023 9.85872L120.776 12.3821H119.51L118.399 10.7064H118.37L117.288 12.3821H116.022L117.756 9.85872Z" fill="white"/>
<path d="M111.195 5.40616H115.433V6.44865H112.286V8.37775H115.121V9.41051H112.286V11.3396H115.433V12.3821H111.195V5.40616Z" fill="white"/>
<path d="M81.0875 18.6586H79.5959L83.8389 0H85.3297L81.0875 18.6586Z" fill="#202124"/>
</svg>
